<?xml version="1.0" encoding="UTF-8" standalone="no"?>
<!-- Generator: Adobe Illustrator 12.0.0, SVG Export Plug-In . SVG Version: 6.00 Build 51448)  -->

<svg xmlns="http://www.w3.org/2000/svg" viewBox="0 0 809 1000" width="809" width="1000" overflow="visible">
  <defs/>
  <path fill="#dde3e6" fill-rule="evenodd" d="M16 819l11 1 12-1v178l-12-1-11 1zM64 962c11 16 22 27 43 27s36-18 36-38c0-49-82-27-82-86 0-34 27-50 58-50 13 0 28 4 37 12l-7 22h-2c-6-14-17-23-33-23-18 0-32 12-32 31 0 47 82 28 82 84 0 37-29 59-65 59-12 0-33-5-42-15l5-23h2zM203 984l47-1c8 0 17-1 25-3l-1 8 1 8h-95V819l12 1 11-1v165zM361 815l-82 182 9-1 10 1c7-25 17-48 26-70h66c10 23 20 48 27 70l14-1 14 1-79-182zm-4 34l29 67h-57zM604 819v134h-3L478 819h-11v178l8-1 7 1V857h3l112 124 14 16h8V819l-8 1-7-1zM724 819h-79v177h51c28 0 56 0 79-20 19-17 32-40 32-77 0-24-8-48-27-65-17-13-36-15-56-15zm-23 9c58 0 81 20 81 75 0 32-9 61-38 75-21 11-53 8-76 6V829l33-1zM603 768a435 435 0 00206-363 405 405 0 00-809 0c0 150 82 289 204 364h102c-8-120 11-284 66-379-26 0-72 20-101 68 3-39 20-72 33-88-28 5-77 20-94 31 11-35 63-84 97-99-22-15-89-17-122 0 14-33 64-59 157-62-5-21-24-52-38-63 27 6 53 9 86 39 0-19-2-41-6-55 24 13 48 25 66 66 15-20 66-33 103-19-16 11-33 19-40 32 36-8 92 1 106 20-27 0-62 7-84 27 35 20 106 63 117 119-24-20-55-34-80-36 9 14 12 51 11 66-13-19-41-42-68-48 16 29 25 92 16 125-18-48-48-108-106-125-31 42-88 207-50 312 8-44 50-84 75-105-14 24-38 92-34 131 18-35 42-54 66-65-26 32-39 61-32 107h153z" clip-rule="evenodd"/>
</svg>
   xmlns:dc="http://purl.org/dc/elements/1.1/"
   xmlns:cc="http://creativecommons.org/ns#"
   xmlns:rdf="http://www.w3.org/1999/02/22-rdf-syntax-ns#"
   xmlns:svg="http://www.w3.org/2000/svg"
   xmlns="http://www.w3.org/2000/svg"
   xmlns:sodipodi="http://sodipodi.sourceforge.net/DTD/sodipodi-0.dtd"
   xmlns:inkscape="http://www.inkscape.org/namespaces/inkscape"
   version="1.1"
   id="Layer_1"
   width="809.23798"
   height="1000"
   viewBox="0 0 809.23799 999.99999"
   overflow="visible"
   enable-background="new 0 0 269.426 332.936"
   xml:space="preserve"
   inkscape:version="0.92.2 (5c3e80d, 2017-08-06)"
   sodipodi:docname="Island Records.svg"
   style="overflow:visible"><metadata
     id="metadata6643"><rdf:RDF><cc:Work
         rdf:about=""><dc:format>image/svg+xml</dc:format><dc:type
           rdf:resource="http://purl.org/dc/dcmitype/StillImage" /><dc:title></dc:title></cc:Work></rdf:RDF></metadata><defs
     id="defs6641" /><sodipodi:namedview
     pagecolor="#ffffff"
     bordercolor="#dde3e6"
     borderopacity="1"
     objecttolerance="10"
     gridtolerance="10"
     guidetolerance="10"
     inkscape:pageopacity="0"
     inkscape:pageshadow="2"
     inkscape:window-width="1366"
     inkscape:window-height="705"
     id="namedview6639"
     showgrid="false"
     inkscape:zoom="0.41299227"
     inkscape:cx="303.74936"
     inkscape:cy="540.12832"
     inkscape:window-x="-8"
     inkscape:window-y="-8"
     inkscape:window-maximized="1"
     inkscape:current-layer="Layer_1" /><path
     style="clip-rule:evenodd;fill:#dde3e6;fill-opacity:1;fill-rule:evenodd;stroke-width:3.00356221"
     inkscape:connector-curvature="0"
     id="path6617"
     d="m 15.786723,818.73502 c 3.646325,0.27032 7.553959,0.78693 11.455587,0.78693 3.646324,0 7.295653,-0.51661 11.461593,-0.78693 v 178.13827 c -4.168944,-0.2583 -7.818272,-0.78693 -11.461593,-0.78693 -3.904631,0 -7.812266,0.52863 -11.455587,0.78693 z" /><path
     style="clip-rule:evenodd;fill:#dde3e6;fill-opacity:1;fill-rule:evenodd;stroke-width:3.00356221"
     inkscape:connector-curvature="0"
     id="path6619"
     d="m 64.378354,961.71059 c 10.158047,16.67277 21.874944,27.09213 42.188036,27.09213 21.09402,0 36.20194,-17.44769 36.20194,-38.0251 0,-48.43244 -81.516685,-27.08012 -81.516685,-85.94093 0,-33.59184 26.566509,-50.0033 57.818575,-50.0033 12.50083,0 27.60574,3.90763 37.23816,12.50683 -3.1267,6.77003 -4.94386,14.05667 -7.03134,21.35233 h -2.60108 c -5.47249,-14.06869 -16.93408,-22.65587 -32.29731,-22.65587 -17.967305,0 -32.813913,11.9782 -32.813913,30.47114 0,47.91583 82.036293,28.65098 82.036293,84.12377 0,37.23816 -28.90628,59.36841 -64.321283,59.36841 -12.765139,0 -33.600851,-5.46648 -42.452349,-15.09891 2.604089,-7.55696 3.904631,-15.36923 4.943864,-23.18449 h 2.607092 z" /><path
     style="clip-rule:evenodd;fill:#dde3e6;fill-opacity:1;fill-rule:evenodd;stroke-width:3.00356221"
     inkscape:connector-curvature="0"
     id="path6621"
     d="m 203.02279,983.84985 c 15.88584,0.52862 31.51337,-0.51662 47.1379,-1.04524 8.33189,-0.25831 16.40546,-1.30355 24.74035,-2.33377 -0.26131,2.86239 -0.78093,5.20818 -0.78093,7.81527 0,2.59207 0.51962,5.20817 0.78093,7.80325 H 180.10561 V 818.73802 c 3.64632,0.27032 7.55396,0.78693 11.45859,0.78693 3.64632,0 7.29265,-0.51661 11.45558,-0.78693 v 165.11183 z" /><path
     style="clip-rule:evenodd;fill:#dde3e6;fill-opacity:1;fill-rule:evenodd;stroke-width:3.00356221"
     d="m 360.50373,814.82771 -81.25457,182.04402 c 2.8654,-0.25831 5.73127,-0.78606 9.11628,-0.78606 3.12371,0 5.9892,0.52775 9.63252,0.78606 7.29564,-24.47303 16.67258,-47.39967 25.7884,-70.31384 h 66.14291 c 10.41636,23.70111 19.79486,48.70321 27.34882,70.31384 4.42424,-0.25831 8.85074,-0.78606 13.79761,-0.78606 4.43026,0 8.59851,0.52775 13.54538,0.78606 L 366.49326,814.82771 Z m -3.38486,34.11858 28.90928,66.67674 h -57.29646 z"
     id="path6623"
     inkscape:connector-curvature="0" /><path
     style="clip-rule:evenodd;fill:#dde3e6;fill-opacity:1;fill-rule:evenodd;stroke-width:3.00356221"
     inkscape:connector-curvature="0"
     id="path6627"
     d="M 603.95029,818.73502 V 952.86209 H 601.3462 L 477.64149,818.73502 h -10.16105 v 178.13827 c 2.34578,-0.2583 4.68856,-0.78693 7.29265,-0.78693 2.34578,0 4.69457,0.52863 7.29865,0.78693 V 856.50481 h 2.59809 l 112.50443,124.48264 c 5.47249,5.9831 10.68367,12.23651 13.54606,15.88584 h 7.80926 V 818.73502 c -2.59808,0.27032 -4.94386,0.78693 -7.28664,0.78693 -2.60409,0 -4.95287,-0.51661 -7.29265,-0.78693 z" /><path
     style="clip-rule:evenodd;fill:#dde3e6;fill-opacity:1;fill-rule:evenodd;stroke-width:3.00356221"
     d="m 724.40407,818.61737 c -6.6169,-0.0409 -13.33825,0.12314 -20.10978,0.12314 h -59.11503 v 177.35098 h 50.77898 c 27.60574,0 56.51352,-0.51643 78.65578,-19.78128 19.52916,-17.2014 32.81041,-40.62954 32.81041,-76.82547 0,-24.74635 -8.33594,-48.96314 -27.8651,-65.1163 -16.40621,-13.67372 -35.30456,-15.62889 -55.15526,-15.7511 z m -23.49464,9.4917 c 58.33515,0 80.99057,20.0626 80.99057,75.26507 -0.003,31.77168 -9.37525,60.68013 -37.49761,74.74881 -21.09402,10.67767 -53.38907,7.55706 -76.30925,6.25351 V 829.15329 c 11.20028,-0.2583 22.13862,-1.04422 32.81629,-1.04422 z"
     id="path6629"
     inkscape:connector-curvature="0" /><path
     style="clip-rule:evenodd;fill:#dde3e6;fill-opacity:1;fill-rule:evenodd;stroke-width:3.00356221"
     inkscape:connector-curvature="0"
     id="path6637"
     d="M 602.6888,767.75856 C 723.94561,692.98487 809.23777,554.61076 809.23777,404.61887 809.23777,181.15986 628.07791,-4.6386718e-6 404.61888,-4.6386718e-6 181.15385,-4.6386718e-6 0,181.15986 0,404.61887 0,555.16342 82.222517,693.99407 204.20919,768.57853 h 101.37324 c -7.33771,-120.03737 11.00204,-283.25995 66.0243,-378.63507 -25.68046,0 -71.52683,20.17794 -100.87163,67.86249 3.66735,-38.51468 20.17192,-71.52683 33.00914,-88.03441 -27.50962,5.49952 -77.02935,20.17192 -93.53693,31.17698 11.00505,-34.84433 62.35696,-84.36406 97.20428,-99.03646 -22.0071,-14.67539 -89.86658,-16.50456 -122.87873,0 14.6724,-33.01214 64.18913,-58.68659 157.72606,-62.35995 -5.50252,-20.17492 -23.84227,-51.3519 -38.51468,-62.35695 27.51264,5.50252 53.18709,9.17288 86.19924,38.51468 0,-18.33675 -1.83518,-40.34986 -5.50253,-55.01926 23.84228,12.83723 47.68155,25.67746 66.02431,66.02431 14.6724,-20.17493 66.0243,-33.01215 102.7008,-18.33675 -16.50157,10.99905 -33.00915,18.33675 -40.34985,31.17397 36.6825,-7.33169 91.70176,1.83518 106.37416,20.17493 -27.50662,0 -62.35395,7.3347 -84.36406,27.50963 34.84733,20.17791 106.37416,62.35994 117.37921,119.21137 -23.84528,-20.17493 -55.02526,-34.84733 -80.6967,-36.6795 9.16987,14.6724 12.83422,51.3519 10.99904,66.0243 -12.83422,-18.33975 -40.34385,-42.18203 -67.85648,-47.68455 16.50758,29.3448 25.67145,91.70176 16.50758,124.71691 C 512.81621,465.13765 483.4714,404.61286 424.7848,388.10829 c -31.17698,42.18203 -88.03441,207.24579 -49.51673,311.78177 7.3347,-44.02021 49.51673,-84.37006 75.19418,-104.53898 -14.6724,23.84227 -38.51768,91.70176 -34.84732,130.21043 18.33674,-34.84733 42.17902,-53.18408 66.01829,-64.18913 -25.67144,31.18599 -38.51167,60.52779 -31.17397,106.38017 H 602.6888 Z" /></svg>