<?xml version="1.0" encoding="UTF-8" standalone="no"?>
<!DOCTYPE svg PUBLIC "-//W3C//DTD SVG 1.0//EN" "http://www.w3.org/TR/2001/REC-SVG-20010904/DTD/svg10.dtd">
<!-- Created with Inkscape (http://www.inkscape.org/) -->
<svg xmlns="http://www.w3.org/2000/svg" viewBox="0 0 800 1040" width="800" height="1040" version="1.0">
  <defs/>
  <path fill="#fff" stroke="#000" stroke-linecap="square" stroke-width="39" d="M31 28h742v983H31z"/>
  <path d="M68 62h668v915H68z"/>
  <path fill="#fff" d="M379 272v250l8 1h7c11 0 19-2 24-6 4-4 6-12 6-23V312c0-18-2-30-6-34s-13-6-25-6h-14zM225 884V155h176c76 0 125 8 146 26 21 17 32 59 32 125v182c0 66-11 108-32 126-21 17-70 26-145 26h-23v244H225z" font-family="Compacta Bd BT" font-size="898.2" font-weight="400" style="text-align:start;line-height:100%;-inkscape-font-specification:Compacta Bd BT"/>
</svg>
